<?xml version="1.0" encoding="iso-8859-1"?>
<!-- Uploaded to: SVG Repo, www.svgrepo.com, Generator: SVG Repo Mixer Tools -->
<svg height="800px" width="800px" version="1.1" id="Layer_1" xmlns="http://www.w3.org/2000/svg" xmlns:xlink="http://www.w3.org/1999/xlink" 
	 viewBox="0 0 506.4 506.4" xml:space="preserve">
<path style="fill:#F0C960;" d="M6.4,97.6C6.4,186,88,240.4,98,246.8c10-6.4,91.6-61.2,91.6-149.2C189.6,47.2,148.4,6,98,6
	S6.4,46.8,6.4,97.6z M128,32c10.8,4.8,20,12,25.6,22L164,72.8c8.4,17.6,7.6,36.8,0,54.4c-11.6,25.6-37.2,42.4-65.6,42.4
	c-10.4,0-20-2-29.6-6.4c-36-16.4-52.4-59.2-36-95.2C44.4,42.4,70,25.6,98.4,25.6C108.4,25.6,118.4,27.6,128,32z"/>
<path style="fill:#E9B526;" d="M70.4,159.6c8.8,4,18.4,6,28,6c26.8,0,50.8-15.6,62-40c7.6-16.4,8-34.8,4-52.4L154,54.8
	c-8.8-7.6-17.6-14.8-27.6-19.2c-8.8-4-18.4-6-28-6c-26.8,0-50.8,15.6-62,40C20.8,103.6,36,144,70.4,159.6z M98.4,50.4
	c26,0,47.2,21.2,47.2,47.2s-21.2,47.2-47.2,47.2s-47.2-21.2-47.2-47.2S72.4,50.4,98.4,50.4z"/>
<path style="fill:#E36D60;" d="M408,500c10-6.4,91.6-61.2,91.6-149.2c0-50.4-41.2-91.6-91.6-91.6c-50.4,0-91.6,41.2-91.6,91.6
	C316.4,439.2,398,493.6,408,500z M342.8,321.2c11.6-25.6,37.2-42.4,65.6-42.4c10.4,0,20,2,29.6,6.4c10.8,4.8,20,12,25.6,22.4
	l10.4,18.8c8.4,17.2,7.6,36.8,0,54c-11.6,25.6-37.2,42.4-65.6,42.4c-10.4,0-20-2-29.6-6.4C342.4,400,326.4,357.2,342.8,321.2z"/>
<path style="fill:#BC3F2C;" d="M408,418.8c26.8,0,50.8-15.6,62-40c7.6-16.4,8-34.8,3.6-52.8l-10.4-18.4
	c-8.4-7.2-17.2-14.4-27.2-18.8c-8.8-4-18.4-6-28-6c-26.8,0-50.8,15.6-62,40c-15.6,34-0.4,74.4,34,90
	C389.2,416.8,398.4,418.8,408,418.8z M360.8,350.8c0-26,21.2-47.2,47.2-47.2s47.2,21.2,47.2,47.2S434,398,408,398
	C382,398,360.8,376.8,360.8,350.8z"/>
<path d="M98.4,253.2c-0.8,0-1.6,0-2-0.4c-0.8-0.4-95.6-58-95.6-155.2c0-54,44-97.6,97.6-97.6c54,0,97.6,44,97.6,97.6
	c0,97.2-94.8,154.4-95.6,155.2C99.6,253.2,98.8,253.2,98.4,253.2z M98.4,8C48.8,8,8.8,48.4,8.8,97.6c0,84.8,76,138,89.6,146.8
	C112,235.6,188,182,188,97.6C188,48,147.6,8,98.4,8z"/>
<path d="M98,171.6c-10,0-20.4-2-30.4-6.4c-37.2-16.8-53.6-60.8-36.8-98s60.8-53.6,98-36.8c10.8,4.8,20.4,12.4,28,22
	C158,54,158,56.8,156,58c-1.6,1.2-4.4,1.2-5.6-0.8c-6.4-8.4-15.2-15.2-24.8-19.6c-33.2-14.8-72.4,0-87.2,32.8
	c-14.8,33.2,0,72.4,32.8,87.2c33.2,14.8,72.4,0.4,87.2-32.8c7.2-16,8-33.6,1.6-50c-0.8-2,0.4-4.4,2.4-5.2c2-0.8,4.4,0.4,5.2,2.4
	c6.8,18.4,6,38.4-2,56.4C153.2,155.2,126.4,171.6,98,171.6z"/>
<path d="M98.4,146.8c-27.2,0-49.2-22-49.2-49.2s22-49.2,49.2-49.2s49.2,22,49.2,49.2S125.2,146.8,98.4,146.8z M98.4,56.4
	c-22.8,0-41.2,18.4-41.2,41.2c0,22.8,18.4,41.2,41.2,41.2s41.2-18.4,41.2-41.2S120.8,56.4,98.4,56.4z"/>
<path d="M408,506.4c-0.8,0-1.6,0-2-0.4c-0.8-0.4-95.6-58-95.6-155.2c0-54,44-97.6,97.6-97.6c54,0,97.6,44,97.6,97.6
	c0,97.2-94.8,154.4-95.6,155.2C409.6,506.4,408.8,506.4,408,506.4z M408,261.2c-49.6,0-89.6,40.4-89.6,89.6
	c0,84.8,76,138,89.6,146.8c13.6-8.8,89.6-62.4,89.6-146.8C498,301.2,457.6,261.2,408,261.2z"/>
<path d="M408,424.8c-10.4,0-20.8-2.4-30.4-6.8c-37.2-16.8-53.6-60.8-36.8-98s60.8-53.6,98-36.8c10.8,4.8,20.4,12.4,28,22
	c1.2,1.6,1.2,4.4-0.8,5.6c-1.6,1.2-4.4,1.2-5.6-0.8c-6.8-8.4-15.2-15.2-24.8-19.6c-33.2-14.8-72.4,0-87.2,32.8
	c-14.8,33.2,0,72.4,32.8,87.2c16,7.2,34,8,50.4,1.6s29.6-18.4,36.8-34.4s8-33.6,1.6-50c-0.8-2,0.4-4.4,2.4-5.2
	c2-0.8,4.4,0.4,5.2,2.4c6.8,18.4,6,38.4-2,56.4s-22.8,31.6-41.2,38.8C425.6,423.2,416.8,424.8,408,424.8z"/>
<path d="M408,400c-27.2,0-49.2-22-49.2-49.2s22-49.2,49.2-49.2s49.2,22,49.2,49.2S435.2,400,408,400z M408,309.6
	c-22.8,0-41.2,18.4-41.2,41.2S385.2,392,408,392s41.2-18.4,41.2-41.2S430.8,309.6,408,309.6z"/>
<path d="M108,253.2H98c-2.4,0-4-1.6-4-4s1.6-4,4-4h10c2.4,0,4,1.6,4,4S110.4,253.2,108,253.2z"/>
<path d="M378.4,506.4h-19.6c-2.4,0-4-1.6-4-4s1.6-4,4-4h19.6c2.4,0,4,1.6,4,4S380.4,506.4,378.4,506.4z M339.2,506.4h-19.6
	c-2.4,0-4-1.6-4-4s1.6-4,4-4h19.6c2.4,0,4,1.6,4,4S341.2,506.4,339.2,506.4z M299.6,506.4H280c-2.4,0-4-1.6-4-4s1.6-4,4-4h19.6
	c2.4,0,4,1.6,4,4S302,506.4,299.6,506.4z M260.4,506.4h-19.6c-2.4,0-4-1.6-4-4s1.6-4,4-4h19.6c2.4,0,4,1.6,4,4
	S262.8,506.4,260.4,506.4z M221.2,506.4h-19.6c-2.4,0-4-1.6-4-4s1.6-4,4-4h19.6c2.4,0,4,1.6,4,4S223.2,506.4,221.2,506.4z
	 M182,504.8c-0.4,0-0.8,0-0.8,0c-6.8-1.6-13.2-4.4-19.2-8c-2-1.2-2.4-3.6-1.2-5.6s3.6-2.4,5.6-1.2c5.2,3.2,10.8,5.6,16.8,7.2
	c2,0.4,3.6,2.8,2.8,4.8C185.6,503.6,183.6,504.8,182,504.8z M149.2,484.4c-1.2,0-2.4-0.4-3.2-1.6c-4.4-5.2-8.4-11.2-10.8-17.6
	c-0.8-2,0-4.4,2-5.2c2-0.8,4.4,0,5.2,2c2.4,5.6,5.6,10.8,9.6,15.6c1.6,1.6,1.2,4.4-0.4,5.6C150.8,484,150,484.4,149.2,484.4z
	 M134,448.8c-2,0-4-1.6-4-3.6s-0.4-4-0.4-5.6c0-5.2,0.4-10,1.6-14.8c0.4-2,2.8-3.6,4.8-3.2s3.6,2.8,3.2,4.8
	c-0.8,4.4-1.6,8.8-1.6,13.2c0,1.6,0,3.6,0.4,5.2S136.8,448.4,134,448.8C134.4,448.8,134.4,448.8,134,448.8z M142.8,410.8
	c-0.8,0-1.2,0-2-0.4c-2-1.2-2.4-3.6-1.2-5.6c3.6-6,8-11.6,13.2-16c1.6-1.6,4-1.2,5.6,0.4s1.2,4-0.4,5.6c-4.8,4-8.4,8.8-11.6,14
	C145.6,410.4,144,410.8,142.8,410.8z M171.6,385.2c-1.6,0-3.2-0.8-3.6-2.4c-0.8-2,0-4.4,2-5.2c6.4-2.8,13.2-4.8,20-5.2
	c2-0.4,4,1.2,4.4,3.6s-1.2,4-3.6,4.4c-6,0.8-12,2.4-17.6,4.8C172.8,385.2,172,385.2,171.6,385.2z M210,378.4c-2,0-3.6-1.2-4-3.2
	s0.8-4.4,3.2-4.8c6-1.2,12-3.6,17.2-6.4c2-1.2,4.4-0.4,5.6,1.6c1.2,2,0.4,4.4-1.6,5.6c-6,3.6-12.8,6-19.6,7.2
	C210.8,378.4,210.4,378.4,210,378.4z M243.6,359.6c-0.8,0-2-0.4-2.8-1.2c-1.6-1.6-1.6-4-0.4-5.6c4-4.4,7.6-9.6,10.4-15.2
	c0.8-2,3.2-2.8,5.2-2c2,0.8,2.8,3.2,2,5.2c-2.8,6.4-6.8,12-11.6,17.2C246,359.2,244.8,359.6,243.6,359.6z M260,324.4h-0.4
	c-2-0.4-3.6-2.4-3.6-4.4c0.4-2.4,0.4-4.8,0.4-7.6c0-3.6-0.4-7.2-1.2-10.8c-0.4-2,1.2-4.4,3.2-4.8s4.4,1.2,4.8,3.2
	c0.8,4,1.2,8.4,1.2,12.4c0,2.8,0,5.6-0.4,8.4C263.6,322.8,262,324.4,260,324.4z M252.8,286.4c-1.6,0-2.8-0.8-3.6-2
	c-2.8-5.6-6.8-10.4-11.2-14.4c-1.6-1.6-1.6-4,0-5.6s4-1.6,5.6,0c5.2,4.8,9.2,10.4,12.8,16.4c1.2,2,0.4,4.4-1.6,5.6
	C254.4,286.4,253.6,286.4,252.8,286.4z M225.2,259.6c-0.4,0-1.2,0-1.6-0.4c-5.6-2.8-11.6-4.4-17.6-5.6c-2-0.4-3.6-2.4-3.2-4.4
	c0.4-2,2.4-3.6,4.4-3.2c6.8,0.8,13.6,3.2,20,6c2,0.8,2.8,3.2,2,5.2C228,258.8,226.4,259.6,225.2,259.6z M186.8,253.2h-19.6
	c-2.4,0-4-1.6-4-4s1.6-4,4-4h19.6c2.4,0,4,1.6,4,4S188.8,253.2,186.8,253.2z M147.6,253.2H128c-2.4,0-4-1.6-4-4s1.6-4,4-4h19.6
	c2.4,0,4,1.6,4,4S149.6,253.2,147.6,253.2z"/>
<path d="M408,506.4h-10c-2.4,0-4-1.6-4-4s1.6-4,4-4h10c2.4,0,4,1.6,4,4S410.4,506.4,408,506.4z"/>
</svg>